<svg xmlns="http://www.w3.org/2000/svg" xml:space="preserve" version="1.1" style="shape-rendering:geometricPrecision; text-rendering:geometricPrecision; image-rendering:optimizeQuality; fill-rule:evenodd; clip-rule:evenodd"
viewBox="0 0 211.66 211.66"
 xmlns:xlink="http://www.w3.org/1999/xlink">
 <g id="Camada_x0020_1">
  <path class="fil0" d="M60.81 167.58c-0.12,-0.43 -0.45,-17.74 -0.16,-20.59 0.33,-3.26 5.24,-0.42 7.82,-1.9 3.11,-1.78 2.25,-3.63 1.94,-6.3 -0.72,-1.04 0.08,-0.53 -1.05,-1.18 -0.59,-0.34 -1.25,-0.66 -1.89,-0.56 -0.49,-0.97 0.21,-0.12 -0.59,-0.44 -0.72,-0.29 -1.55,-0.16 -2.46,-0.15 -1.07,0.01 -2.24,0.12 -3.24,-0.16l-0.12 -21.18c2.43,-0.66 10.17,1.42 10.21,-4.97 0.05,-7.09 -8.75,-4.24 -9.81,-5.27 -0.04,-0.05 -0.08,-0.19 -0.09,-0.16 -0.01,0.03 -0.06,-0.13 -0.07,-0.17 -0.31,-1.13 -0.14,-9.09 -0.14,-10.35 0,-2.92 -0.5,-8.17 0.4,-10.55 3.48,-0.16 6.48,0.58 8.54,-1.46 1.81,-1.79 2.08,-5.1 -0.1,-6.78 -1.48,-0.48 -1.62,-1.07 -3.86,-1.27 -1.69,-0.16 -3.37,0.14 -4.87,-0.2 -0.57,-1.67 -0.54,-20.38 -0.02,-21 0.85,-0.99 3.74,-0.5 5.16,-0.5 27.38,0.01 55.43,0.21 82.71,-0.01 0.42,0 1.13,-0.03 1.51,0l1.27 0.4c0.65,0.72 0.29,74.5 0.29,85.71 0,9.5 0.29,19.45 -0.04,28.89 -0.94,0.86 -3.69,0.46 -5.27,0.46 -14.78,0 -83.94,0.43 -86.07,-0.31zm33.51 -49.96c-1.15,0.16 -3.22,1.93 -4.2,2.78 -0.66,0.57 -3.11,3.09 -3.18,3.79 -0.19,1.05 -0.88,1.98 -1.3,2.92 -1.68,3.77 -2.32,15.5 -0.25,17.88 1.11,1.28 2.86,1.74 4.57,1.36 1.3,-0.29 1.3,-0.89 1.37,-0.99 3.53,-1.88 0.76,-11.65 2.62,-15.15 0.61,-1.14 1.56,-3.04 2.92,-3.07 0.11,-0.71 -0.09,-0.38 1.21,-1.28 2.87,-1.97 10.2,-1.31 14.42,-1.31 3.6,0.01 8.4,-0.35 11.04,2.45l2 2.41c0.02,1.19 0.83,2.29 0.93,4.39 0.28,6.12 -1.14,9.43 2.35,12.06l0.8 0.77c0.84,-0.21 4.97,0.63 5.94,-4 0.35,-1.63 0.19,-7.82 0.05,-9.83 -0.41,-5.6 -3.35,-10.13 -6.86,-12.98 -4.83,-3.94 -8.72,-4.08 -16,-4.11 -3.3,-0.01 -6.67,-0.06 -9.97,0.02 -4.59,0.1 -4.99,0.86 -8.46,1.89zm24.91 -7.49c0.77,-0.63 1.86,-1.33 2.7,-2.01l2.65 -2.37c1.49,-1.37 3,-5 3.77,-6.96 0.47,-3.53 1.2,-1.55 0.61,-8.09 -0.06,-0.74 -0.57,-3.33 -0.82,-3.96 -0.38,-0.96 -1.08,-2.21 -1.59,-3.11l-4.23 -5.21c-0.93,-0.7 -1.79,-1.34 -2.87,-1.88 -1.22,-0.61 -1.76,-1.38 -3.57,-1.18 0.14,-1.06 -1.21,-0.54 -1.89,-1.01 -7.35,-0.35 -10.17,-0.72 -15.78,3.58l-2.37 1.85c-0.35,0.39 -0.24,0.32 -0.72,0.8 -1.43,1.39 -1.09,1.53 -2.02,2.93l-1.8 4.67c-0.83,2.02 -0.67,6 -0.37,8.09 0.54,3.81 3.5,9.33 6.17,11.15 2.99,2.03 0.76,0.86 5.08,3.33 0.9,0.51 1.18,0.33 2.21,0.8 2.19,1 8.1,1 10.45,0.21l4.39 -1.63zm-19.22 -20.16c0.16,-0.5 0.16,-0.57 0.42,-1.06 0.28,-0.53 0.4,-0.5 0.49,-1.22l0.78 -0.81c3.81,-4.81 10.69,-5.45 15.17,-1.3 0.84,0.78 0.9,1.06 1.98,1.64 -0.02,0.95 0.22,0.71 0.61,1.45 0.91,1.72 1.4,3.8 1.07,6 -0.14,0.92 -1.2,3.04 -1.8,4.03l-1.25 2.04 -2.45 1.47c-0.89,0.62 -1.15,0.46 -2.22,0.99 -1.15,0.57 -4.5,0.54 -5.67,0.22 -1.01,-0.27 -0.38,-0.35 -1.43,-0.72 -1,-0.35 -0.66,0.03 -1.42,-0.55l-2.3 -2.2c-2.75,-2.88 -2.6,-6.42 -1.98,-9.98zm-47.76 -45.59l-0.52 1.5c-1.03,2.12 0.47,23.43 -0.43,28.24 -2.93,0.42 -10.08,-1.44 -9.98,4.65 0.01,0.81 0.44,2.12 0.82,2.8 1.53,2.78 6.9,1.29 8.98,1.92 0.72,1.38 0.33,15.32 0.36,18.93 0,0.43 0.04,1.11 0.01,1.52 -0.22,2.93 -3.18,0.44 -6.91,1.78 -5.13,1.84 -3.94,7.78 -0.32,8.66 1.47,0.36 5.96,-0.07 6.85,0.59 0.7,0.61 0.36,4.15 0.36,5.14 0.01,4.28 0.36,13.85 -0.37,16.94 -0.66,-0.29 -5.49,-0.52 -6.9,0.44l-1.67 1.07c-1.69,1.57 -1.25,3.57 -0.18,5.34 1.85,3.08 5.62,1.33 8.3,1.94l0.36 0.13c1.29,0.45 0.66,5.94 0.66,7.52l-0.01 16.44c0,3.14 0.22,4.67 1.89,6.15 0.14,0.86 0.01,0.83 1.17,1.15 0.98,0.28 4.54,0.17 5.71,0.17 13.21,0 96.71,0.41 98.61,-0.28 0.95,-0.35 1.58,-1.21 2.07,-1.92 0.76,-1.08 0.78,-1.08 0.84,-2.77 0.08,-2.47 0.02,-5.01 0.02,-7.48l0 -91.17c0,-7.98 0.19,-18.56 -0.03,-26.42 -0.05,-1.75 -0.25,-1.64 -0.94,-2.85 -0.03,-0.03 -0.08,-0.08 -0.09,-0.09l-1.32 -1.56c-8.78,-0.49 -18.52,-0.11 -27.41,-0.11l-75.24 0c-1.45,0 -3.52,-0.37 -4.69,1.63z"/>
 </g>
</svg>
