
<svg xmlns="http://www.w3.org/2000/svg" xml:space="preserve" version="1.1" style="shape-rendering:geometricPrecision; text-rendering:geometricPrecision; image-rendering:optimizeQuality; fill-rule:evenodd; clip-rule:evenodd"
viewBox="0 0 211.66 211.66"
 xmlns:xlink="http://www.w3.org/1999/xlink">
 <g id="Camada_x0020_1">
  <path class="fil0" d="M63.11 89.28c-0.67,-1.54 -1.11,-1.51 -2.46,-2.68 -1.2,-1.05 -6.47,-6.17 -7.53,-6.71 -1.34,-0.31 -0.5,-0.16 -1.31,-0.72l-1.05 -0.53c-1.15,-1.08 -2.84,-2.84 -4.53,-3.04 -3.91,-0.45 -7.72,3.65 -3.5,8.37l4.56 3.79c0.13,0.21 0.05,0.11 0.33,0.44 1.12,1.31 4.15,3.04 4.65,4.68 0.52,0.03 0.54,0.1 0.71,0.18 0.92,0.38 3.44,2.82 4.14,3.42l7.88 6.91c3.45,3.39 12.79,11.24 16.89,14.84l5 4.36c0.22,0.2 0.4,0.36 0.64,0.58l7.98 7.11c0.38,0.34 0.84,0.63 1.18,0.94 0.37,0.33 0.56,0.6 1.06,1.05 2.17,1.97 3.86,1.95 6.04,0.99 1.47,-0.65 1.42,-1.07 2.3,-2l4.58 -3.85c1.85,-1.69 0.52,-0.9 2.69,-2.4 0.84,-0.58 0.03,0.03 0.68,-0.58l3.42 -2.93c0.89,-0.84 1.32,-1.24 2.18,-2.03l5.64 -4.93c0.57,-0.52 0.62,-0.74 1.58,-0.91 1.22,-0.05 1.22,-0.38 1.85,-1.1 0.47,-0.54 0.94,-1.05 1.42,-1.23 0.38,-1.68 1.78,-2.05 3.75,-4.19l7.49 -6.39c0.36,-0.34 0.36,-0.28 0.78,-0.72l0.75 -0.93 0.34 -0.17c0.06,-0.04 0.43,-0.28 0.5,-0.34 1.14,-0.88 1.73,-1.96 3.36,-2.36 0.42,-0.71 0.45,-0.2 0.52,-1.09 2.05,-0.54 5.44,-4.85 6.71,-5.58 4.92,-2.83 1.12,-1.27 6.58,-5.41l0.23 -0.6c1.12,-2.71 2.2,-5.2 -1.55,-7.61 -2.19,-1.42 -6.04,0.71 -6.63,1.34 -1.35,1.43 -1.37,2.02 -4.54,4.53 -1.04,0.82 -2.23,1.95 -3.26,2.81 -1.26,1.07 -5.96,4.55 -6.3,6.17 -0.58,-0.07 -0.33,-0.17 -0.84,0.25 -0.78,0.66 -0.36,0.48 -0.45,0.85 -1.56,0.37 -2.87,2.25 -3.98,3.18 -0.79,0.65 -1.02,0.84 -1.78,1.56 -0.28,0.27 -0.64,0.56 -0.94,0.88 -2.17,2.26 -1.61,0.96 -2.91,2.23l-3.31 3.32c-0.69,0.67 -0.79,0.35 -1.77,1.74 -0.99,0.09 -2.68,1.87 -3.52,2.64 -1.16,1.06 -2.56,2.66 -3.65,2.92l-0.35 0.54c-0.56,1.17 -2.16,2.44 -3.17,3.27l-1.73 1.31c-0.59,0.56 -0.99,1.02 -1.65,1.64 -1.56,1.45 -5.27,4.31 -6.4,5.86l-1.81 0.05c-0.96,-1.39 -1.44,-1.45 -2.6,-2.46l-4.37 -3.78c-0.83,-0.73 -1.47,-1.39 -2.39,-2.15l-12.83 -11.34c-0.4,-0.3 -0.33,-0.24 -0.67,-0.53l-3.05 -2.65c-1.66,-2.02 -3.68,-3.4 -5.62,-4.99l-2.84 -2.29c-0.04,-0.04 -0.11,-0.1 -0.16,-0.14l-2.93 -3.51 -0.03 0.12zm106.19 66.48c-1.33,-0.46 -115.07,-0.18 -131.53,-0.13 -6.37,0.03 -7.06,0.12 -7.66,-10.13 -1.24,-21.07 -0.07,-62.64 -0.06,-73.16 0.02,-9.09 4.54,-7.71 12.25,-7.7l119.02 0c2.79,0 6.95,-0.56 9.02,0.81 2.7,1.78 2.62,3.24 2.63,7.19l-0.01 69.47c0,1.71 0.57,8.15 -0.62,9.44 0.02,0.93 -0.4,1.55 -1.08,2.3 -0.7,0.78 -0.28,0.25 -0.99,0.81 -1.13,0.87 -0.42,-0.08 -0.97,1.1zm-130.63 9.34c40.18,-0.24 80.89,0 121.14,-0.01 5.11,-0.01 9.83,0.67 13.8,-1.33 1.75,-0.89 2.54,-1.52 3.72,-1.77 0.83,-1.01 1.31,-0.86 2.45,-2.62 0.55,-0.85 1.88,-2.63 1.67,-3.89 1.78,-0.82 1.34,-3.92 1.35,-5.52l0.01 -74.6c0,-3.29 0.38,-9.18 -1.51,-12.13 -0.38,-0.58 -0.9,-1.4 -1.3,-2.02 -1.97,-3 -0.49,-1.32 -3.32,-3.33 -0.75,-0.53 -1.23,-1.11 -2.07,-1.25 -4.52,-0.55 0.44,-1.62 -14.8,-1.61l-115.7 0c-5.52,0 -10.26,-0.61 -14.73,1.46 -1.05,0.48 -1.75,0.78 -2.48,1.38l-1.53 1.48c-0.04,0.04 -0.11,0.1 -0.16,0.15l-0.46 0.44c-1.62,1.61 -0.51,1 -1.68,2.56 -1.06,1.42 -1.1,1.28 -1.55,2.79 -1.63,5.42 -1.11,8.83 -1.11,15.22l0 66.14c0,4.06 0.06,8.27 2.65,12 3.61,5.22 9.54,6.49 15.61,6.46z"/>
 </g>
</svg>
