<svg xmlns="http://www.w3.org/2000/svg"
width="30px" height="30px"
xml:space="preserve" version="1.1" style="shape-rendering:geometricPrecision; text-rendering:geometricPrecision; image-rendering:optimizeQuality; fill-rule:evenodd; clip-rule:evenodd"
viewBox="0 0 211.66 211.66"
 xmlns:xlink="http://www.w3.org/1999/xlink">
 <g id="Camada_x0020_1">
  <path class="fil0" d="M158.03 115.02l-0.1 -1.48c-1.01,-0.02 -3.23,-2.32 -5.6,-0.04 -1.62,1.56 -1.16,3.14 -1.16,5.84l-0.04 41.37c-2.86,1.11 -7.49,0.63 -11.09,0.63l-69.23 0c-2.94,0 -8.53,0.64 -10.56,-0.66 -0.71,-5.66 0.77,-44.49 -0.56,-46.47 -1.13,-1.66 -3.69,-2.55 -5.77,-0.78 -1.09,0.92 -1.03,1.53 -1.09,3.16 -0.1,2.77 0,5.72 0,8.52 0,11.35 -0.05,22.71 -0.01,34.06 0.04,8.96 -1.03,9.89 7.28,9.93l93.4 0.01c2.86,-0.02 4.63,-0.72 4.92,-3.61 0.36,-3.61 0.06,-28.23 0.06,-34.07 0,-1.5 0.41,-15.38 -0.45,-16.41zm14.98 4.59l0.24 0.5c0.02,0.05 0.15,0.33 0.2,0.4 0.81,0.06 1.8,0.2 2.59,0.08 1.48,-0.23 0.63,-0.41 2.05,-0.74 0.36,-0.75 2.38,-2.46 1.39,-5.32 -0.29,-0.85 -0.51,-0.9 -1.19,-1.06l0.08 -0.85 -10.9 -10.82c-0.9,-0.97 -4.29,-4.55 -5.45,-4.98l-0.83 -0.83c-0.28,-0.75 -0.1,-0.36 -0.48,-0.89 -0.12,-0.16 -0.54,-0.56 -0.69,-0.7 -0.65,-0.61 -0.95,-0.73 -1.16,-1.57 -1.31,-0.33 -2.24,-1.87 -3.21,-2.83l-14.55 -14.6c-0.61,-0.82 -0.61,-0.92 -1.3,-1.68l-4.08 -4.16c-0.04,-0.03 -0.1,-0.09 -0.14,-0.13l-13.58 -12.83c-2.68,-2.37 -0.65,-0.78 -2.72,-3.02l-4.32 -4.22c-1.75,-1.47 -1.53,-2.05 -3.27,-2.78 -0.22,-0.21 -0.83,-0.63 -1.21,-0.96 -0.93,-0.8 -1.41,-2.71 -3.95,-3 -1.63,-0.19 -2.95,0.06 -3.91,0.85 -0.47,0.38 -1.86,1.67 -2.14,1.98 -0.43,1.34 -1.35,1.86 -2.23,2.72 -0.87,0.84 -1.54,1.57 -2.41,2.54 -1.27,1.41 -4.29,3.55 -4.92,5.07l-4.07 4.03c-0.69,0.54 -0.91,0.73 -1.46,1.32 -0.42,0.45 -0.84,1.1 -1.27,1.46 -0.55,0.47 -0.96,0.68 -1.53,1.25l-24.27 24.11c-0.78,0.6 -0.68,0.62 -1.28,1.37 -2.12,2.66 -4.51,4.62 -6.69,6.81 -1,1.01 -1.58,2 -2.99,2.52 -0.15,0.4 -0.6,0.69 -0.72,1.1 -1.32,0.38 -1.61,1.05 -2.94,2.37 -1.01,1 -1.72,1.61 -2.62,2.6l-5.16 5.14c-0.49,1.74 -3.69,3.58 -3.97,5.36 -0.53,3.32 3.62,8.91 9.76,1.41 1.46,-1.79 3.17,-2.94 4.58,-4.78l26.93 -27.19c0.85,-0.91 8.51,-7.72 8.75,-8.95 1.56,-0.8 6.38,-6.25 7.97,-7.84l12.59 -12.4c1.29,-1.35 2.44,-3.17 3.98,-2.32l3.57 3.57c0.04,0.05 0.09,0.11 0.13,0.15l1.91 1.92c1.38,1.63 1.33,1.07 2.47,2.22l9.96 10.37c0.38,0.33 0.95,0.72 1.2,0.98l15.84 16.04c3.14,3.04 9.11,9.4 12.03,11.88 0.5,0.42 0.23,0.15 0.57,0.51l1.07 1.69 10.83 10.86c0.85,1.08 5.84,6.23 6.92,6.27z"/>
 </g>
</svg>
