<?xml version="1.0" encoding="UTF-8"?>
<!DOCTYPE svg PUBLIC "-//W3C//DTD SVG 1.1//EN" "http://www.w3.org/Graphics/SVG/1.1/DTD/svg11.dtd">
<!-- Creator: CorelDRAW 2019 (64 Bit) -->
<svg xmlns="http://www.w3.org/2000/svg" xml:space="preserve" width="50px" height="50px" version="1.1" style="shape-rendering:geometricPrecision; text-rendering:geometricPrecision; image-rendering:optimizeQuality; fill-rule:evenodd; clip-rule:evenodd"
viewBox="0 0 507.98 592.66"
 xmlns:xlink="http://www.w3.org/1999/xlink">
 <defs>
  <style type="text/css">
   <![CDATA[
    .fil0 {fill:white}
   ]]>
  </style>
 </defs>
 <g id="Camada_x0020_1">
  <metadata id="CorelCorpID_0Corel-Layer"/>
  <path class="fil0" d="M186.87 86.83l19.2 0.01 0 18.83c9.14,0.92 19.19,4.33 27.62,8.96l-11.82 17.99c-7.62,-3.91 -16.25,-6.11 -25.4,-6.11 -15.38,0 -29.3,6.23 -39.38,16.31 -10.08,10.08 -16.31,24 -16.31,39.38 0,15.38 6.23,29.31 16.31,39.38 10.08,10.08 24,16.32 39.38,16.32 10.22,0 19.8,-2.76 28.04,-7.56l8.88 19.63c-8.58,4.68 -17.02,7.21 -27.32,8.79l0 18.82 -19.2 -0.02 -0.03 -18.8c-10.25,-1.58 -21.2,-4.75 -29.73,-10.21 -1.36,-0.87 -7.03,-4.41 -7.74,-5.33 -1.24,0.6 -11.54,11.35 -13.39,13.16 -0.97,-0.46 -13.3,-12.91 -13.68,-13.64l13.11 -13.12c-0.33,-0.96 -2.07,-3.07 -2.75,-4.05 -0.9,-1.29 -1.73,-2.64 -2.56,-4.02 -1.64,-2.74 -3.16,-5.74 -4.52,-8.87 -3.06,-7.07 -4.29,-13.02 -5.68,-20.87l-18.82 0.02c-0.01,-4.01 -0.18,-16.26 0.06,-19.22l18.79 -0.01c1.2,-10.49 5.04,-21.18 10.29,-29.9l5.14 -7.92 -13.07 -13.24 13.63 -13.52 13.11 13.12c0.82,-0.33 8.78,-6.31 16.96,-9.83 5.89,-2.53 13.88,-4.93 20.88,-5.64l0 -18.84zm63.95 -0.17l16.91 0c4.13,0 7.51,3.38 7.51,7.52l0 7.23 10.78 -1.98c0.27,-3.78 -0.69,-15.55 0.69,-17.86 1.38,-2.32 3.87,-2.12 7.16,-2.12l18.55 0c3.28,0 5.69,-0.18 7.01,2.27 1.23,2.28 0.33,14.05 0.6,17.71 2.94,0.77 5.45,1.3 8.39,2.18 4.48,1.33 10.74,3.92 14.72,6.17 1.26,0.72 5.91,3.61 6.7,3.8 1.11,-1.57 4.49,-4.63 6.07,-6.15 3.4,-3.29 6.85,-8.68 10.95,-4.69l15.15 15.14c1.35,1.36 5.16,4.04 3.42,7.56 -0.9,1.83 -10.51,10.27 -11.77,12.25 1.22,2.23 2.69,4.22 3.94,6.68 4.27,8.41 5.96,13.07 8.18,22.81 3.77,0.48 15.55,-0.73 17.87,0.68 2.33,1.43 2.13,3.82 2.13,7.17l0 18.55c0,3.49 0.22,5.7 -2.27,7.02 -2.51,1.33 -13.87,0.25 -17.69,0.63 -3.33,11.86 -2.47,11.29 -8.3,22.93 -1.26,2.53 -3.05,4.93 -3.87,6.52 0.57,1.17 4.79,4.99 6.03,6.25 1.13,1.16 5.46,5.14 5.89,6.33 1.32,3.65 -2.4,6.15 -3.86,7.63 -2.04,2.07 -3.94,3.93 -5.99,5.99 -2.08,2.09 -4,4.03 -6.11,6.1 -1.42,1.41 -4.07,5.22 -7.67,3.68 -1.9,-0.82 -10.46,-10.65 -12.41,-11.83 -1.14,0.55 -2.26,1.42 -3.37,2.08 -2.92,1.73 -7.18,3.9 -10.3,5.2 -7.1,2.98 -14.4,4.36 -15.75,4.91 -0.43,1.57 -0.12,7.12 -0.12,9.22 0,9.53 0.6,10.71 -7.8,10.71l-18.56 0c-3.38,0 -5.63,0.25 -6.92,-2.15 -1.62,-3 0.1,-14.63 -0.77,-17.78 -1.26,-0.52 -2.94,-0.71 -4.32,-1.05 -1.98,-0.5 -3.92,-1.07 -5.84,-1.73 -0.2,-0.07 -0.38,-0.13 -0.54,-0.2l0 95.16c0,4.13 -3.38,7.51 -7.51,7.51l-16.91 0c-4.14,0 -7.52,-3.38 -7.52,-7.51l0 -263.02c0,-4.14 3.38,-7.52 7.52,-7.52zm57 427.19l7.12 -17.3c7.6,5.35 15.07,8.03 22.42,8.03 11.31,0 16.97,-3.94 16.97,-11.82 0,-3.68 -1.34,-7.19 -4.01,-10.55 -2.66,-3.34 -8.16,-7.1 -16.49,-11.26 -8.34,-4.15 -13.97,-7.58 -16.84,-10.26 -2.91,-2.7 -5.13,-5.88 -6.67,-9.57 -1.57,-3.71 -2.35,-7.8 -2.35,-12.27 0,-8.38 3.08,-15.32 9.22,-20.83 6.13,-5.53 14.01,-8.28 23.63,-8.28 12.53,0 21.74,2.35 27.6,7.04l-5.83 16.59c-6.77,-4.84 -13.89,-7.27 -21.39,-7.27 -4.44,0 -7.88,1.16 -10.33,3.51 -2.45,2.32 -3.66,5.38 -3.66,9.12 0,6.21 6.9,12.65 20.66,19.34 7.27,3.53 12.5,6.82 15.7,9.8 3.21,2.97 5.66,6.43 7.32,10.4 1.7,3.99 2.53,8.41 2.53,13.28 0,8.76 -3.46,15.98 -10.4,21.64 -6.92,5.68 -16.19,8.51 -27.83,8.51 -10.12,0 -19.24,-2.63 -27.37,-7.85zm-64.67 -33.89l0 39.92 -19.24 0 0 -108.27c12.83,-0.53 20.33,-0.81 22.5,-0.81 17.14,0 29.67,2.63 37.57,7.88 7.93,5.25 11.89,13.43 11.89,24.57 0,24.82 -14.67,37.24 -43.98,37.24 -2.18,0 -5.08,-0.18 -8.74,-0.53zm0 -51.66l0 34.54c3.26,0.35 5.83,0.53 7.7,0.53 8.79,0 15.2,-1.46 19.27,-4.39 4.04,-2.91 6.06,-7.68 6.06,-14.24 0,-11.21 -9.07,-16.82 -27.17,-16.82 -2.02,0 -3.99,0.13 -5.86,0.38zm-37.54 -10.99l-7.93 15.91c-4.3,-4.24 -11.21,-6.36 -20.73,-6.36 -9.04,0 -16.44,3.79 -22.22,11.34 -5.79,7.55 -8.66,17.09 -8.66,28.66 0,11.56 2.67,20.75 8.03,27.54 5.35,6.8 12.49,10.18 21.43,10.18 10.23,0 18.21,-3.66 23.99,-10.99l8.96 15.53c-7.85,8.39 -19.34,12.58 -34.51,12.58 -15.15,0 -26.92,-4.98 -35.3,-14.92 -8.41,-9.95 -12.6,-23.54 -12.6,-40.73 0,-16.01 4.64,-29.39 13.96,-40.18 9.29,-10.75 21.21,-16.13 35.73,-16.13 12.45,0 22.4,2.52 29.85,7.57zm69.87 -283.68c7.61,-3.91 18.4,-7.12 27.54,-7.12 15.38,0 29.31,6.23 39.39,16.31 10.08,10.08 16.31,24 16.31,39.38 0,15.38 -6.23,29.31 -16.31,39.38 -10.08,10.08 -24.01,16.32 -39.39,16.32 -10.11,0 -19.6,-2.7 -27.78,-7.42 0,7.93 0,15.85 0,23.7 0.23,0.09 0.49,0.18 0.79,0.29 5.41,1.98 11.05,3.32 17.39,4.29l0.01 18.82 19.2 -0.02 0.03 -18.8c10.24,-1.58 21.2,-4.75 29.73,-10.21 1.36,-0.87 7.03,-4.41 7.74,-5.33 1.24,0.6 11.54,11.35 13.39,13.16 0.97,-0.46 13.3,-12.91 13.68,-13.64l-13.11 -13.12c0.33,-0.96 2.07,-3.07 2.75,-4.05 0.9,-1.29 1.73,-2.64 2.56,-4.02 1.64,-2.74 3.16,-5.74 4.51,-8.87 3.07,-7.07 4.29,-13.02 5.69,-20.87l18.82 0.02c0.01,-4.01 0.18,-16.26 -0.06,-19.22l-18.79 -0.01c-1.21,-10.49 -5.04,-21.18 -10.29,-29.9l-5.14 -7.92 13.07 -13.24 -13.63 -13.52 -13.12 13.12c-0.81,-0.33 -8.77,-6.31 -16.95,-9.83 -5.89,-2.53 -13.88,-4.93 -20.88,-5.64l0 -18.84 -19.21 0.01 0.01 18.83c-5.82,0.59 -12.01,2.18 -17.91,4.46l-6.85 2.36 0 -18.08 -18.79 0 0 262.55 18.79 0 0 -219.85 6.81 -3.48zm-0.24 8.66l0 79.85c7.88,5.49 17.46,8.71 27.78,8.71 13.44,0 25.6,-5.44 34.41,-14.25 8.8,-8.8 14.24,-20.96 14.24,-34.4 0,-13.43 -5.44,-25.6 -14.24,-34.4 -8.81,-8.8 -20.97,-14.25 -34.41,-14.25 -10.16,0 -19.6,3.12 -27.4,8.45l-0.38 0.29zm-44.66 83.95l0.19 -0.15 -3.02 -6.63c-8.45,7.11 -19.36,11.39 -31.28,11.39 -13.43,0 -25.59,-5.44 -34.4,-14.25 -8.8,-8.8 -14.25,-20.96 -14.25,-34.4 0,-13.43 5.45,-25.6 14.25,-34.4 8.81,-8.8 20.97,-14.25 34.4,-14.25 10.17,0 19.6,3.12 27.41,8.45l3.79 -5.94 15.61 -24.48 -5.51 -3.16 0 0c-8.65,-4.96 -14.38,-6.36 -24.3,-8.99 -0.26,-3.78 0.69,-15.55 -0.68,-17.86 -1.38,-2.32 -3.88,-2.12 -7.16,-2.12l-18.55 0c-3.28,0 -5.69,-0.18 -7.01,2.27 -1.23,2.28 -0.33,14.05 -0.6,17.71 -2.94,0.77 -5.45,1.3 -8.39,2.18 -4.48,1.33 -10.74,3.92 -14.72,6.17 -1.27,0.72 -5.91,3.61 -6.7,3.8 -1.11,-1.57 -4.49,-4.63 -6.07,-6.15 -3.41,-3.29 -6.85,-8.68 -10.95,-4.69l-15.15 15.14c-1.35,1.36 -5.17,4.04 -3.42,7.56 0.9,1.83 10.51,10.27 11.77,12.25 -1.22,2.23 -2.69,4.22 -3.94,6.68 -4.27,8.41 -5.96,13.07 -8.19,22.81 -3.76,0.48 -15.54,-0.73 -17.86,0.68 -2.33,1.43 -2.14,3.82 -2.14,7.17l0 18.55c0,3.49 -0.21,5.7 2.28,7.02 2.5,1.33 13.87,0.25 17.69,0.63 3.33,11.86 2.47,11.29 8.29,22.93 1.27,2.53 3.06,4.93 3.88,6.52 -0.57,1.17 -4.79,4.99 -6.03,6.25 -1.13,1.16 -5.46,5.14 -5.89,6.33 -1.32,3.65 2.4,6.15 3.86,7.63 2.04,2.07 3.93,3.93 5.99,5.99 2.08,2.09 4,4.03 6.1,6.1 1.43,1.41 4.08,5.22 7.68,3.68 1.9,-0.82 10.46,-10.65 12.41,-11.83 1.14,0.55 2.26,1.42 3.37,2.08 2.91,1.73 7.18,3.9 10.29,5.2 7.11,2.98 14.41,4.36 15.76,4.91 0.43,1.57 0.12,7.12 0.12,9.22 0,9.53 -0.6,10.71 7.8,10.71l18.55 0c3.38,0 5.64,0.25 6.93,-2.15 1.62,-3 -0.1,-14.63 0.76,-17.78 1.27,-0.52 2.95,-0.71 4.33,-1.05 6.52,-1.62 12.71,-4.19 18.55,-7.3l6.54 -3.84 -0.05 -0.11 0 0 -0.01 -0.03 -3.06 -6.69 -0.05 0.03 -9.22 -19.79z"/>
 </g>
</svg>
